<svg aria-hidden="true" focusable="false" role="presentation" class="icon icon--wide icon--full-color icon-soylent-full-color" viewBox="0 0 117 54"><path fill="current" d="M16.18 35.548h.344c2.993 0 6.49-1.222 6.49-4.656 0-3.74-3.668-4.363-6.625-4.876-1.766-.317-4.735-1.087-4.735-2.688v-.293c0-2.2 2.822-2.787 4.49-2.787h.233c2.098 0 3.533.868 4.428 1.516.405.305 1.031.122 1.178-.306.086-.256-.012-.537-.257-.72-1.068-.77-2.773-1.81-5.349-1.81h-.233c-2.846 0-5.913 1.284-5.913 4.107v.293c0 2.982 4.465 3.703 5.937 3.935 2.724.44 5.386 1.075 5.386 3.63 0 2.455-2.6 3.323-5.03 3.323h-.343c-1.78 0-4.343-1.075-5.19-2.615-.122-.232-.38-.367-.662-.367-.294 0-.576.147-.7.379a.557.557 0 00.025.599c1.104 2.065 4.257 3.336 6.527 3.336zM32.128 35.548h.43c3.361 0 6.097-2.322 6.097-5.17V24.11c0-2.847-2.736-5.17-6.097-5.17h-.43c-3.36 0-6.096 2.323-6.096 5.17v6.269c0 2.86 2.735 5.169 6.096 5.169zm-4.637-5.17V24.11c0-2.126 2.086-3.85 4.65-3.85h.429c2.564 0 4.65 1.724 4.65 3.85v6.269c0 2.126-2.086 3.85-4.65 3.85h-.43c-2.55 0-4.624-1.712-4.649-3.826v-.024zM48.591 42.342h.43c3.36 0 6.096-2.322 6.096-5.169v-17.56c0-.415-.392-.672-.748-.672-.392 0-.711.293-.711.672v11.426c-.246 1.784-2.294 3.19-4.662 3.19h-.417c-2.564 0-4.65-1.736-4.65-3.875V19.625c0-.39-.318-.672-.748-.672-.392 0-.711.293-.711.672v10.73c0 2.871 2.736 5.205 6.097 5.205h.43c1.815 0 3.606-.684 4.648-1.699v3.312c0 2.126-2.085 3.85-4.649 3.85h-.43c-2.38 0-4.501-1.076-5.053-2.579a.705.705 0 00-.687-.464c-.356 0-.749.256-.749.647 0 .074 0 .184.074.294.87 2.248 3.876 3.421 6.44 3.421zM64.453 35.548c.49 0 .748-.33.748-.648 0-.39-.319-.684-.748-.684-1.84 0-3.337-1.247-3.337-2.786V12.868c0-.404-.294-.672-.748-.672-.393 0-.712.293-.712.672v18.586c0 2.298 2.11 4.094 4.797 4.094zM73.102 35.548h.429c2.6 0 4.92-1.406 5.766-3.495l.024-.073c.012-.037.037-.098.037-.172 0-.366-.344-.647-.785-.647-.331 0-.589.183-.65.428-.663 1.588-2.43 2.651-4.404 2.651h-.43c-2.564 0-4.65-1.723-4.65-3.849v-2.53h10.44c.418 0 .749-.305.749-.672v-3.067c0-2.945-2.662-5.169-6.183-5.169h-.307c-3.386 0-6.133 2.322-6.133 5.17v6.268c0 2.847 2.735 5.157 6.097 5.157zm-4.638-9.019v-2.42c0-2.125 2.098-3.848 4.687-3.848h.38c2.564 0 4.65 1.723 4.65 3.849v2.42h-9.716zM83.762 35.548c.43 0 .748-.281.748-.672V23.829c0-1.93 2.147-3.556 4.686-3.556h.38c2.577 0 4.687 1.735 4.687 3.874v10.729c0 .379.307.672.711.672.356 0 .749-.257.749-.672v-10.73c0-2.871-2.748-5.205-6.134-5.205h-.38c-1.84 0-3.644.684-4.687 1.723v-1.039c0-.39-.294-.647-.748-.647-.417 0-.711.268-.711.647v15.25c-.013.38.306.673.699.673zM99.158 20.334h1.754v11.12c0 2.298 2.11 4.106 4.796 4.106.479 0 .724-.342.724-.66 0-.317-.257-.66-.724-.66-1.864 0-3.336-1.222-3.336-2.786v-11.12h3.103c.479 0 .724-.342.724-.66 0-.317-.257-.66-.724-.66h-3.103v-6.183c0-.379-.319-.66-.724-.66-.417 0-.724.281-.724.66v6.171H99.17c-.49 0-.76.342-.76.66-.013.33.257.672.748.672z"></path><path fill="current" d="M0 0v54h116.111V0H0zm114.492 52.387H1.619V1.613h112.873v50.774z"></path></svg>